<?xml version="1.0" standalone="no"?>
<!DOCTYPE svg PUBLIC "-//W3C//DTD SVG 20010904//EN"
 "http://www.w3.org/TR/2001/REC-SVG-20010904/DTD/svg10.dtd">
<svg version="1.0" xmlns="http://www.w3.org/2000/svg"
 width="210.000000pt" height="179.000000pt" viewBox="0 0 210.000000 179.000000"
 preserveAspectRatio="xMidYMid meet">
<metadata>
Created by potrace 1.13, written by Peter Selinger 2001-2015
</metadata>
<g transform="translate(0.000000,179.000000) scale(0.100000,-0.100000)"
fill="#000000" stroke="none">
<path d="M65 1635 c-5 -76 -3 -202 6 -340 7 -121 13 -237 14 -258 0 -39 30
-76 46 -60 4 5 11 160 15 346 l7 338 -27 27 c-14 15 -32 36 -40 47 -12 17 -15
5 -21 -100z"/>
<path d="M110 1743 c0 -4 6 -15 13 -24 15 -20 284 -85 416 -101 134 -15 166
-24 206 -59 48 -43 56 -80 40 -187 -7 -48 -16 -148 -20 -222 -3 -74 -15 -198
-25 -275 -10 -77 -22 -181 -25 -231 l-7 -90 36 -32 c43 -38 60 -40 80 -10 12
20 14 103 9 570 l-6 547 -68 16 c-37 8 -130 24 -206 35 -116 17 -244 38 -410
65 -18 3 -33 2 -33 -2z"/>
<path d="M1170 1294 c0 -4 23 -69 51 -146 l52 -139 31 3 c33 3 27 -8 101 196
l34 92 -29 0 c-27 0 -30 -4 -65 -110 -20 -60 -38 -110 -40 -110 -2 0 -20 50
-40 110 -35 106 -38 110 -66 110 -16 0 -29 -3 -29 -6z"/>
<path d="M1493 1186 c-24 -21 -28 -32 -28 -75 0 -64 24 -91 88 -98 41 -5 49
-2 77 25 23 24 30 39 30 70 0 54 -7 70 -41 87 -43 23 -93 19 -126 -9z m103
-32 c24 -37 9 -98 -25 -102 -31 -5 -51 21 -51 64 0 34 21 64 45 64 8 0 22 -12
31 -26z"/>
<path d="M1725 1185 c-20 -19 -25 -34 -25 -75 0 -41 5 -56 25 -75 33 -34 87
-34 120 0 33 32 31 45 -5 45 -21 0 -30 -5 -30 -16 0 -10 -7 -14 -22 -12 -21 3
-23 8 -23 63 0 50 3 60 18 63 12 3 20 -4 24 -17 7 -26 63 -31 63 -6 0 54 -101
75 -145 30z"/>
<path d="M1928 1199 c-10 -5 -18 -17 -18 -24 0 -18 33 -20 59 -3 22 13 51 5
51 -15 0 -9 -15 -16 -41 -20 -22 -3 -49 -13 -60 -23 -23 -21 -25 -67 -3 -88
20 -20 68 -21 87 -1 13 13 16 13 21 0 3 -8 15 -15 26 -15 18 0 20 6 20 83 0
69 -3 87 -18 100 -21 19 -96 23 -124 6z m88 -115 c-3 -9 -6 -20 -6 -25 0 -13
-47 -11 -55 1 -13 21 4 40 36 40 24 0 30 -3 25 -16z"/>
<path d="M200 770 c-8 -16 -6 -22 12 -34 93 -58 591 -336 603 -336 9 0 15 9
15 23 0 18 -11 26 -52 42 -50 20 -58 27 -87 94 -6 12 -254 133 -413 201 -66
28 -68 28 -78 10z"/>
<path d="M40 590 c-19 -36 48 -89 297 -234 127 -74 300 -181 384 -236 162
-107 169 -109 183 -48 4 17 1 32 -9 41 -8 8 -81 55 -162 103 -82 48 -261 157
-399 241 -139 84 -259 153 -268 153 -8 0 -20 -9 -26 -20z"/>
</g>
</svg>
