<svg width="210" height="179" xmlns="http://www.w3.org/2000/svg" preserveAspectRatio="xMidYMid meet">
 <metadata>Created by potrace 1.13, written by Peter Selinger 2001-2015</metadata>

 <g>
  <title>background</title>
  <rect fill="none" id="canvas_background" height="402" width="582" y="-1" x="-1"/>
 </g>
 <g>
  <title>Layer 1</title>
  <g id="svg_1" fill="#000000" transform="translate(0.000000,179.000000) scale(0.100000,-0.100000)">
   <path fill="#306856" id="svg_2" d="m65,1635c-5,-76 -3,-202 6,-340c7,-121 13,-237 14,-258c0,-39 30,-76 46,-60c4,5 11,160 15,346l7,338l-27,27c-14,15 -32,36 -40,47c-12,17 -15,5 -21,-100z"/>
   <path fill="#306856" id="svg_3" d="m110,1743c0,-4 6,-15 13,-24c15,-20 284,-85 416,-101c134,-15 166,-24 206,-59c48,-43 56,-80 40,-187c-7,-48 -16,-148 -20,-222c-3,-74 -15,-198 -25,-275c-10,-77 -22,-181 -25,-231l-7,-90l36,-32c43,-38 60,-40 80,-10c12,20 14,103 9,570l-6,547l-68,16c-37,8 -130,24 -206,35c-116,17 -244,38 -410,65c-18,3 -33,2 -33,-2z"/>
   <path fill="#306856" id="svg_4" d="m1170,1294c0,-4 23,-69 51,-146l52,-139l31,3c33,3 27,-8 101,196l34,92l-29,0c-27,0 -30,-4 -65,-110c-20,-60 -38,-110 -40,-110c-2,0 -20,50 -40,110c-35,106 -38,110 -66,110c-16,0 -29,-3 -29,-6z"/>
   <path fill="#306856" id="svg_5" d="m1493,1186c-24,-21 -28,-32 -28,-75c0,-64 24,-91 88,-98c41,-5 49,-2 77,25c23,24 30,39 30,70c0,54 -7,70 -41,87c-43,23 -93,19 -126,-9zm103,-32c24,-37 9,-98 -25,-102c-31,-5 -51,21 -51,64c0,34 21,64 45,64c8,0 22,-12 31,-26z"/>
   <path fill="#306856" id="svg_6" d="m1725,1185c-20,-19 -25,-34 -25,-75c0,-41 5,-56 25,-75c33,-34 87,-34 120,0c33,32 31,45 -5,45c-21,0 -30,-5 -30,-16c0,-10 -7,-14 -22,-12c-21,3 -23,8 -23,63c0,50 3,60 18,63c12,3 20,-4 24,-17c7,-26 63,-31 63,-6c0,54 -101,75 -145,30z"/>
   <path fill="#306856" id="svg_7" d="m1928,1199c-10,-5 -18,-17 -18,-24c0,-18 33,-20 59,-3c22,13 51,5 51,-15c0,-9 -15,-16 -41,-20c-22,-3 -49,-13 -60,-23c-23,-21 -25,-67 -3,-88c20,-20 68,-21 87,-1c13,13 16,13 21,0c3,-8 15,-15 26,-15c18,0 20,6 20,83c0,69 -3,87 -18,100c-21,19 -96,23 -124,6zm88,-115c-3,-9 -6,-20 -6,-25c0,-13 -47,-11 -55,1c-13,21 4,40 36,40c24,0 30,-3 25,-16z"/>
   <path fill="#306856" id="svg_8" d="m200,770c-8,-16 -6,-22 12,-34c93,-58 591,-336 603,-336c9,0 15,9 15,23c0,18 -11,26 -52,42c-50,20 -58,27 -87,94c-6,12 -254,133 -413,201c-66,28 -68,28 -78,10z"/>
   <path fill="#306856" id="svg_9" d="m40,590c-19,-36 48,-89 297,-234c127,-74 300,-181 384,-236c162,-107 169,-109 183,-48c4,17 1,32 -9,41c-8,8 -81,55 -162,103c-82,48 -261,157 -399,241c-139,84 -259,153 -268,153c-8,0 -20,-9 -26,-20z"/>
  </g>
 </g>
</svg>